<?xml version="1.0" encoding="UTF-8" standalone="no"?><!DOCTYPE svg PUBLIC "-//W3C//DTD SVG 1.1//EN" "http://www.w3.org/Graphics/SVG/1.1/DTD/svg11.dtd"><svg width="100%" height="100%" viewBox="0 0 1252 1002" version="1.1" xmlns="http://www.w3.org/2000/svg" xmlns:xlink="http://www.w3.org/1999/xlink" xml:space="preserve" xmlns:serif="http://www.serif.com/" style="fill-rule:evenodd;clip-rule:evenodd;stroke-linejoin:round;stroke-miterlimit:2;"><g id="Layer3"><path d="M745.686,-42.881C753.273,-65.409 742.376,-89.999 720.59,-99.509C698.804,-109.02 673.363,-100.293 662.001,-79.413L227.372,719.334C220.745,731.512 219.988,746.035 225.312,758.836C230.636,771.637 241.468,781.34 254.776,785.227L405.543,829.268C429.141,836.161 453.975,823.206 461.823,799.907L745.686,-42.881Z" style="fill:url(#_Linear1);"/><path d="M243.205,700.689C227.187,711.073 218.672,729.826 221.397,748.721C224.121,767.615 237.586,783.199 255.885,788.636L403.98,832.637C420.63,837.584 438.655,833.331 451.339,821.464L938.575,365.58C957.081,348.265 959.3,319.683 943.688,299.719C928.076,279.755 899.802,275.019 878.536,288.805L243.205,700.689Z" style="fill:url(#_Linear2);"/><path d="M847.239,1307.47C861.122,1309.38 875.172,1305.4 885.988,1296.49C896.804,1287.58 903.401,1274.55 904.18,1260.56L955.86,333.082C957.247,308.184 940.137,286.046 915.693,281.114C891.249,276.181 866.893,289.951 858.516,313.439L540.824,1204.25C535.751,1218.47 537.356,1234.23 545.193,1247.14C553.03,1260.05 566.266,1268.74 581.227,1270.8L847.239,1307.47Z" style="fill:url(#_Linear3);"/></g><defs><linearGradient id="_Linear1" x1="0" y1="0" x2="1" y2="0" gradientUnits="userSpaceOnUse" gradientTransform="matrix(589.6,0,0,667.547,251.305,387.877)"><stop offset="0" style="stop-color:#16ffbb;stop-opacity:1"/><stop offset="1" style="stop-color:#8b20ff;stop-opacity:1"/></linearGradient><linearGradient id="_Linear2" x1="0" y1="0" x2="1" y2="0" gradientUnits="userSpaceOnUse" gradientTransform="matrix(695.06,-61.0105,37.8491,431.194,229.249,474.794)"><stop offset="0" style="stop-color:#3bffcc;stop-opacity:1"/><stop offset="0.43" style="stop-color:#77c0bf;stop-opacity:1"/><stop offset="1" style="stop-color:#ff31a2;stop-opacity:1"/></linearGradient><linearGradient id="_Linear3" x1="0" y1="0" x2="1" y2="0" gradientUnits="userSpaceOnUse" gradientTransform="matrix(390.79,0,0,530.138,842.404,464.709)"><stop offset="0" style="stop-color:#ff5579;stop-opacity:1"/><stop offset="1" style="stop-color:#feff4d;stop-opacity:1"/></linearGradient></defs></svg>